<svg width="430" height="429" viewBox="0 0 430 429" fill="none" xmlns="http://www.w3.org/2000/svg">
<path d="M429.247 171.144C429.247 147.178 433.413 134.802 422.145 112.66C410.877 90.5184 394.362 70.3997 373.542 53.453C352.722 36.5063 328.005 23.0635 300.802 13.892C273.6 4.7205 244.444 -1.0476e-06 215 0C185.556 1.0476e-06 156.4 4.7205 129.198 13.892C101.995 23.0635 77.278 36.5063 56.458 53.453C35.6379 70.3997 19.1226 90.5184 7.85485 112.66C-3.41287 134.802 0.752699 147.178 0.752702 171.144H215H429.247Z" fill="url(#paint0_linear_1_13)"/>
<path d="M0.752702 171.144H215H429.247V429H215H0.752702L0.752702 171.144Z" fill="url(#paint1_linear_1_13)"/>
<defs>
<linearGradient id="paint0_linear_1_13" x1="215" y1="0" x2="215" y2="365.001" gradientUnits="userSpaceOnUse">
<stop stop-color="#9BA4D4"/>
<stop offset="1" stop-color="#50556E"/>
</linearGradient>
<linearGradient id="paint1_linear_1_13" x1="215" y1="0" x2="215" y2="365.001" gradientUnits="userSpaceOnUse">
<stop stop-color="#9BA4D4"/>
<stop offset="1" stop-color="#50556E"/>
</linearGradient>
</defs>
</svg>
